{
	"asset":{
		"generator":"Khronos glTF Blender I/O v4.2.60",
		"version":"2.0"
	},
	"scene":0,
	"scenes":[
		{
			"name":"Scene",
			"nodes":[
				0
			]
		}
	],
	"nodes":[
		{
			"mesh":0,
			"name":"map1",
			"rotation":[
				0.70710688829422,
				0,
				0,
				0.7071066498756409
			]
		}
	],
	"materials":[
		{
			"doubleSided":true,
			"name":"Floor",
			"pbrMetallicRoughness":{
				"baseColorTexture":{
					"index":0
				},
				"metallicFactor":0
			}
		},
		{
			"doubleSided":true,
			"name":"Walls",
			"pbrMetallicRoughness":{
				"baseColorTexture":{
					"index":1
				},
				"metallicFactor":0
			}
		}
	],
	"meshes":[
		{
			"name":"map1",
			"primitives":[
				{
					"attributes":{
						"POSITION":0,
						"NORMAL":1,
						"TEXCOORD_0":2
					},
					"indices":3,
					"material":0
				},
				{
					"attributes":{
						"POSITION":4,
						"NORMAL":5,
						"TEXCOORD_0":6
					},
					"indices":7,
					"material":1
				}
			]
		}
	],
	"textures":[
		{
			"sampler":0,
			"source":0
		},
		{
			"sampler":0,
			"source":1
		}
	],
	"images":[
		{
			"mimeType":"image/jpeg",
			"name":"concretefloor.jpg.001",
			"uri":"concretefloor.jpg"
		},
		{
			"mimeType":"image/jpeg",
			"name":"brickwall.jpg.001",
			"uri":"brickwall.jpg"
		}
	],
	"accessors":[
		{
			"bufferView":0,
			"componentType":5126,
			"count":244,
			"max":[
				8,
				6.000000953674316,
				3.999999523162842
			],
			"min":[
				0,
				0,
				-3.371749244251987e-07
			],
			"type":"VEC3"
		},
		{
			"bufferView":1,
			"componentType":5126,
			"count":244,
			"type":"VEC3"
		},
		{
			"bufferView":2,
			"componentType":5126,
			"count":244,
			"type":"VEC2"
		},
		{
			"bufferView":3,
			"componentType":5123,
			"count":426,
			"type":"SCALAR"
		},
		{
			"bufferView":4,
			"componentType":5126,
			"count":120,
			"max":[
				8,
				6.000000953674316,
				3.999999523162842
			],
			"min":[
				0,
				0,
				-3.371749244251987e-07
			],
			"type":"VEC3"
		},
		{
			"bufferView":5,
			"componentType":5126,
			"count":120,
			"type":"VEC3"
		},
		{
			"bufferView":6,
			"componentType":5126,
			"count":120,
			"type":"VEC2"
		},
		{
			"bufferView":7,
			"componentType":5123,
			"count":294,
			"type":"SCALAR"
		}
	],
	"bufferViews":[
		{
			"buffer":0,
			"byteLength":2928,
			"byteOffset":0,
			"target":34962
		},
		{
			"buffer":0,
			"byteLength":2928,
			"byteOffset":2928,
			"target":34962
		},
		{
			"buffer":0,
			"byteLength":1952,
			"byteOffset":5856,
			"target":34962
		},
		{
			"buffer":0,
			"byteLength":852,
			"byteOffset":7808,
			"target":34963
		},
		{
			"buffer":0,
			"byteLength":1440,
			"byteOffset":8660,
			"target":34962
		},
		{
			"buffer":0,
			"byteLength":1440,
			"byteOffset":10100,
			"target":34962
		},
		{
			"buffer":0,
			"byteLength":960,
			"byteOffset":11540,
			"target":34962
		},
		{
			"buffer":0,
			"byteLength":588,
			"byteOffset":12500,
			"target":34963
		}
	],
	"samplers":[
		{
			"magFilter":9729,
			"minFilter":9987
		}
	],
	"buffers":[
		{
			"byteLength":13088,
			"uri":"map1.bin"
		}
	]
}
