{
	"asset":{
		"generator":"Khronos glTF Blender I/O v4.2.60",
		"version":"2.0"
	},
	"scene":0,
	"scenes":[
		{
			"name":"Scene",
			"nodes":[
				0
			]
		}
	],
	"nodes":[
		{
			"mesh":0,
			"name":"map1",
			"rotation":[
				0.70710688829422,
				0,
				0,
				0.7071066498756409
			]
		}
	],
	"materials":[
		{
			"doubleSided":true,
			"name":"Floor",
			"pbrMetallicRoughness":{
				"baseColorTexture":{
					"index":0
				},
				"metallicFactor":0.5
			}
		},
		{
			"doubleSided":true,
			"name":"Celing",
			"pbrMetallicRoughness":{
				"baseColorTexture":{
					"index":1
				},
				"metallicFactor":0
			}
		},
		{
			"doubleSided":true,
			"name":"Walls",
			"pbrMetallicRoughness":{
				"baseColorTexture":{
					"index":2
				},
				"metallicFactor":0
			}
		}
	],
	"meshes":[
		{
			"name":"map1",
			"primitives":[
				{
					"attributes":{
						"POSITION":0,
						"NORMAL":1,
						"TEXCOORD_0":2
					},
					"indices":3,
					"material":0
				},
				{
					"attributes":{
						"POSITION":4,
						"NORMAL":5,
						"TEXCOORD_0":6
					},
					"indices":7,
					"material":1
				},
				{
					"attributes":{
						"POSITION":8,
						"NORMAL":9,
						"TEXCOORD_0":10
					},
					"indices":11,
					"material":2
				}
			]
		}
	],
	"textures":[
		{
			"sampler":0,
			"source":0
		},
		{
			"sampler":0,
			"source":1
		},
		{
			"sampler":0,
			"source":2
		}
	],
	"images":[
		{
			"mimeType":"image/jpeg",
			"name":"concretefloor.jpg",
			"uri":"concretefloor.jpg"
		},
		{
			"mimeType":"image/jpeg",
			"name":"white.jpg",
			"uri":"white.jpg"
		},
		{
			"mimeType":"image/jpeg",
			"name":"brickwall.jpg",
			"uri":"brickwall.jpg"
		}
	],
	"accessors":[
		{
			"bufferView":0,
			"componentType":5126,
			"count":165,
			"max":[
				8,
				6.000000953674316,
				3.999999523162842
			],
			"min":[
				0,
				-5.999999523162842,
				1.999999761581421
			],
			"type":"VEC3"
		},
		{
			"bufferView":1,
			"componentType":5126,
			"count":165,
			"type":"VEC3"
		},
		{
			"bufferView":2,
			"componentType":5126,
			"count":165,
			"type":"VEC2"
		},
		{
			"bufferView":3,
			"componentType":5123,
			"count":297,
			"type":"SCALAR"
		},
		{
			"bufferView":4,
			"componentType":5126,
			"count":49,
			"max":[
				8,
				6,
				1.9999991655349731
			],
			"min":[
				0,
				-6,
				-3.371749244251987e-07
			],
			"type":"VEC3"
		},
		{
			"bufferView":5,
			"componentType":5126,
			"count":49,
			"type":"VEC3"
		},
		{
			"bufferView":6,
			"componentType":5126,
			"count":49,
			"type":"VEC2"
		},
		{
			"bufferView":7,
			"componentType":5123,
			"count":117,
			"type":"SCALAR"
		},
		{
			"bufferView":8,
			"componentType":5126,
			"count":170,
			"max":[
				8,
				6.000000953674316,
				3.999999523162842
			],
			"min":[
				0,
				-6,
				-3.371749244251987e-07
			],
			"type":"VEC3"
		},
		{
			"bufferView":9,
			"componentType":5126,
			"count":170,
			"type":"VEC3"
		},
		{
			"bufferView":10,
			"componentType":5126,
			"count":170,
			"type":"VEC2"
		},
		{
			"bufferView":11,
			"componentType":5123,
			"count":366,
			"type":"SCALAR"
		}
	],
	"bufferViews":[
		{
			"buffer":0,
			"byteLength":1980,
			"byteOffset":0,
			"target":34962
		},
		{
			"buffer":0,
			"byteLength":1980,
			"byteOffset":1980,
			"target":34962
		},
		{
			"buffer":0,
			"byteLength":1320,
			"byteOffset":3960,
			"target":34962
		},
		{
			"buffer":0,
			"byteLength":594,
			"byteOffset":5280,
			"target":34963
		},
		{
			"buffer":0,
			"byteLength":588,
			"byteOffset":5876,
			"target":34962
		},
		{
			"buffer":0,
			"byteLength":588,
			"byteOffset":6464,
			"target":34962
		},
		{
			"buffer":0,
			"byteLength":392,
			"byteOffset":7052,
			"target":34962
		},
		{
			"buffer":0,
			"byteLength":234,
			"byteOffset":7444,
			"target":34963
		},
		{
			"buffer":0,
			"byteLength":2040,
			"byteOffset":7680,
			"target":34962
		},
		{
			"buffer":0,
			"byteLength":2040,
			"byteOffset":9720,
			"target":34962
		},
		{
			"buffer":0,
			"byteLength":1360,
			"byteOffset":11760,
			"target":34962
		},
		{
			"buffer":0,
			"byteLength":732,
			"byteOffset":13120,
			"target":34963
		}
	],
	"samplers":[
		{
			"magFilter":9729,
			"minFilter":9987
		}
	],
	"buffers":[
		{
			"byteLength":13852,
			"uri":"map2.bin"
		}
	]
}
