{
	"asset":{
		"generator":"Khronos glTF Blender I/O v4.2.60",
		"version":"2.0"
	},
	"scene":0,
	"scenes":[
		{
			"name":"Scene",
			"nodes":[
				0
			]
		}
	],
	"nodes":[
		{
			"mesh":0,
			"name":"map3"
		}
	],
	"materials":[
		{
			"doubleSided":true,
			"name":"Floor",
			"pbrMetallicRoughness":{
				"baseColorTexture":{
					"index":0
				},
				"metallicFactor":0.5
			}
		},
		{
			"doubleSided":true,
			"name":"Celing",
			"pbrMetallicRoughness":{
				"baseColorTexture":{
					"index":1
				},
				"metallicFactor":0
			}
		},
		{
			"doubleSided":true,
			"name":"Walls",
			"pbrMetallicRoughness":{
				"baseColorTexture":{
					"index":2
				},
				"metallicFactor":0
			}
		}
	],
	"meshes":[
		{
			"name":"map3",
			"primitives":[
				{
					"attributes":{
						"POSITION":0,
						"NORMAL":1,
						"TEXCOORD_0":2
					},
					"indices":3,
					"material":0
				},
				{
					"attributes":{
						"POSITION":4,
						"NORMAL":5,
						"TEXCOORD_0":6
					},
					"indices":7,
					"material":1
				},
				{
					"attributes":{
						"POSITION":8,
						"NORMAL":9,
						"TEXCOORD_0":10
					},
					"indices":11,
					"material":2
				}
			]
		}
	],
	"textures":[
		{
			"sampler":0,
			"source":0
		},
		{
			"sampler":0,
			"source":1
		},
		{
			"sampler":0,
			"source":2
		}
	],
	"images":[
		{
			"mimeType":"image/jpeg",
			"name":"concretefloor.jpg",
			"uri":"concretefloor.jpg"
		},
		{
			"mimeType":"image/jpeg",
			"name":"white.jpg",
			"uri":"white.jpg"
		},
		{
			"mimeType":"image/jpeg",
			"name":"brickwall.jpg",
			"uri":"brickwall.jpg"
		}
	],
	"accessors":[
		{
			"bufferView":0,
			"componentType":5126,
			"count":468,
			"max":[
				8,
				-1.249999761581421,
				5.999998092651367
			],
			"min":[
				0,
				-4.000001430511475,
				-4.000000476837158
			],
			"type":"VEC3"
		},
		{
			"bufferView":1,
			"componentType":5126,
			"count":468,
			"type":"VEC3"
		},
		{
			"bufferView":2,
			"componentType":5126,
			"count":468,
			"type":"VEC2"
		},
		{
			"bufferView":3,
			"componentType":5123,
			"count":738,
			"type":"SCALAR"
		},
		{
			"bufferView":4,
			"componentType":5126,
			"count":57,
			"max":[
				8,
				1.2117850474169245e-06,
				5.999999046325684
			],
			"min":[
				0,
				-2.999999523162842,
				-3.999999761581421
			],
			"type":"VEC3"
		},
		{
			"bufferView":5,
			"componentType":5126,
			"count":57,
			"type":"VEC3"
		},
		{
			"bufferView":6,
			"componentType":5126,
			"count":57,
			"type":"VEC2"
		},
		{
			"bufferView":7,
			"componentType":5123,
			"count":99,
			"type":"SCALAR"
		},
		{
			"bufferView":8,
			"componentType":5126,
			"count":133,
			"max":[
				8,
				1.2117850474169245e-06,
				5.999999046325684
			],
			"min":[
				0,
				-4.000001430511475,
				-4.000000476837158
			],
			"type":"VEC3"
		},
		{
			"bufferView":9,
			"componentType":5126,
			"count":133,
			"type":"VEC3"
		},
		{
			"bufferView":10,
			"componentType":5126,
			"count":133,
			"type":"VEC2"
		},
		{
			"bufferView":11,
			"componentType":5123,
			"count":339,
			"type":"SCALAR"
		}
	],
	"bufferViews":[
		{
			"buffer":0,
			"byteLength":5616,
			"byteOffset":0,
			"target":34962
		},
		{
			"buffer":0,
			"byteLength":5616,
			"byteOffset":5616,
			"target":34962
		},
		{
			"buffer":0,
			"byteLength":3744,
			"byteOffset":11232,
			"target":34962
		},
		{
			"buffer":0,
			"byteLength":1476,
			"byteOffset":14976,
			"target":34963
		},
		{
			"buffer":0,
			"byteLength":684,
			"byteOffset":16452,
			"target":34962
		},
		{
			"buffer":0,
			"byteLength":684,
			"byteOffset":17136,
			"target":34962
		},
		{
			"buffer":0,
			"byteLength":456,
			"byteOffset":17820,
			"target":34962
		},
		{
			"buffer":0,
			"byteLength":198,
			"byteOffset":18276,
			"target":34963
		},
		{
			"buffer":0,
			"byteLength":1596,
			"byteOffset":18476,
			"target":34962
		},
		{
			"buffer":0,
			"byteLength":1596,
			"byteOffset":20072,
			"target":34962
		},
		{
			"buffer":0,
			"byteLength":1064,
			"byteOffset":21668,
			"target":34962
		},
		{
			"buffer":0,
			"byteLength":678,
			"byteOffset":22732,
			"target":34963
		}
	],
	"samplers":[
		{
			"magFilter":9729,
			"minFilter":9987
		}
	],
	"buffers":[
		{
			"byteLength":23412,
			"uri":"map3.bin"
		}
	]
}
